# xmcd
# 
# Track frame offsets:
#     150
#     19592
#     42505
#     65796
#     87120
#     106517
#     122018
#     141205
#     157195
#     183377
#     201917
#     224539
#     244331
#     262104
#     283195
#     296756
#     317675
# 
# Disc length: 4443
# 
# Revision: 5
# Processed by: cddbd v1.5.2PL0 Copyright (c) Steve Scherf et al.
# Submitted via: fre:ac v1.0.17
# 
DISCID=0e115911
DTITLE=Various Artist - World Tour - Salsa Club - The Second Journey - CD1 - Die Tradition der alten Schule
DYEAR=2009
DGENRE=Salsa
TTITLE0=Delgado Isaac - Cántame Como Ayer
TTITLE1=Victor Manuelle Hay - Que Poner El Alma
TTITLE2=Willi Chirino Ft Albita Rodrigues - Rumbera
TTITLE3=Rey Ruiz - Menteme Otra Véz
TTITLE4=Pio Leyva - Pare Cochero
TTITLE5=Gilberto Santa Rosa - Represento (Live)
TTITLE6=Celia Cruz - Uno
TTITLE7=El Piqueton De Felix Rodon - El Rumbo Del Piqueton
TTITLE8=Afro Cuban All Stars - El Son De Baloy
TTITLE9=Septeto Habanero - Voy A La Calle Vapor
TTITLE10=Giro - Mi Forma De Sentir
TTITLE11=Maurico Venegas - El Monturo De Maria
TTITLE12=Serra Maestra - Aunque Tu Mami No Quera
TTITLE13=Orchestra Aragon - Ella Quere Que Le Den Conseo
TTITLE14=Los Cubaztecas - Por Tu Amor
TTITLE15=Septedo Tipco Traditionales Del Son - Guacoco
TTITLE16=Papa Noel And Papi Ovedo - Limpia Mi Son
EXTD=
EXTT0=
EXTT1=
EXTT2=
EXTT3=
EXTT4=
EXTT5=
EXTT6=
EXTT7=
EXTT8=
EXTT9=
EXTT10=
EXTT11=
EXTT12=
EXTT13=
EXTT14=
EXTT15=
EXTT16=
PLAYORDER=
